<?xml version="1.0" encoding="UTF-8" standalone="no"?>
<svg
   xmlns:dc="http://purl.org/dc/elements/1.1/"
   xmlns:cc="http://creativecommons.org/ns#"
   xmlns:rdf="http://www.w3.org/1999/02/22-rdf-syntax-ns#"
   xmlns:svg="http://www.w3.org/2000/svg"
   xmlns="http://www.w3.org/2000/svg"
   xmlns:xlink="http://www.w3.org/1999/xlink"
   xmlns:sodipodi="http://sodipodi.sourceforge.net/DTD/sodipodi-0.dtd"
   xmlns:inkscape="http://www.inkscape.org/namespaces/inkscape"
   inkscape:version="1.0 (4035a4fb49, 2020-05-01)"
   sodipodi:docname="ocdla-marker-round-origLogo.svg"
   id="svg124"
   xml:space="preserve"
   enable-background="new 15 6.953 386 89"
   viewBox="15 6.953 156.605 166.36599"
   height="166.366"
   width="156.605"
   y="0px"
   x="0px"
   version="1.1"><metadata
   id="metadata128"><rdf:RDF><cc:Work
       rdf:about=""><dc:format>image/svg+xml</dc:format><dc:type
         rdf:resource="http://purl.org/dc/dcmitype/StillImage" /><dc:title></dc:title></cc:Work></rdf:RDF></metadata><sodipodi:namedview
   inkscape:current-layer="layer3"
   inkscape:window-maximized="1"
   inkscape:window-y="222"
   inkscape:window-x="3829"
   inkscape:cy="76.422811"
   inkscape:cx="193"
   inkscape:zoom="3.7590674"
   showgrid="false"
   id="namedview126"
   inkscape:window-height="1526"
   inkscape:window-width="2880"
   inkscape:pageshadow="2"
   inkscape:pageopacity="0"
   guidetolerance="10"
   gridtolerance="10"
   objecttolerance="10"
   borderopacity="1"
   bordercolor="#666666"
   pagecolor="#ffffff"
   inkscape:document-rotation="0" />
<defs
   id="defs2">
<clipPath
   id="SVGID_2_-6"><rect
     id="use7-9"
     width="413.979"
     height="105.953"
     x="0"
     y="0" /></clipPath><clipPath
   id="clipPath905"><rect
     id="use903"
     width="413.979"
     height="105.953"
     x="0"
     y="0" /></clipPath><clipPath
   id="clipPath909"><rect
     id="use907"
     width="413.979"
     height="105.953"
     x="0"
     y="0" /></clipPath><clipPath
   id="clipPath913"><rect
     id="use911"
     width="413.979"
     height="105.953"
     x="0"
     y="0" /></clipPath><clipPath
   id="clipPath917"><rect
     id="use915"
     width="413.979"
     height="105.953"
     x="0"
     y="0" /></clipPath><clipPath
   id="clipPath921"><rect
     id="use919"
     width="413.979"
     height="105.953"
     x="0"
     y="0" /></clipPath><clipPath
   id="clipPath925"><rect
     id="use923"
     width="413.979"
     height="105.953"
     x="0"
     y="0" /></clipPath><clipPath
   id="clipPath929"><rect
     id="use927"
     width="413.979"
     height="105.953"
     x="0"
     y="0" /></clipPath><clipPath
   id="clipPath933"><rect
     id="use931"
     width="413.979"
     height="105.953"
     x="0"
     y="0" /></clipPath><clipPath
   id="clipPath937"><rect
     id="use935"
     width="413.979"
     height="105.953"
     x="0"
     y="0" /></clipPath><clipPath
   id="clipPath941"><rect
     id="use939"
     width="413.979"
     height="105.953"
     x="0"
     y="0" /></clipPath><clipPath
   id="clipPath945"><rect
     id="use943"
     width="413.979"
     height="105.953"
     x="0"
     y="0" /></clipPath><rect
   id="rect2151"
   width="413.979"
   height="105.953"
   x="0"
   y="0"
   style="fill:url(#radialGradient2885);fill-opacity:1" /><clipPath
   id="SVGID_2_-69"><use
     xlink:href="#SVGID_1_-2"
     overflow="visible"
     id="use7-6"
     x="0"
     y="0"
     width="100%"
     height="100%" /></clipPath><clipPath
   id="clipPath889"><use
     xlink:href="#SVGID_1_-2"
     overflow="visible"
     id="use887"
     x="0"
     y="0"
     width="100%"
     height="100%" /></clipPath><clipPath
   id="clipPath893"><use
     xlink:href="#SVGID_1_-2"
     overflow="visible"
     id="use891"
     x="0"
     y="0"
     width="100%"
     height="100%" /></clipPath><clipPath
   id="clipPath897"><use
     xlink:href="#SVGID_1_-2"
     overflow="visible"
     id="use895"
     x="0"
     y="0"
     width="100%"
     height="100%" /></clipPath><clipPath
   id="clipPath901"><use
     xlink:href="#SVGID_1_-2"
     overflow="visible"
     id="use899"
     x="0"
     y="0"
     width="100%"
     height="100%" /></clipPath><clipPath
   id="clipPath905-0"><use
     xlink:href="#SVGID_1_-2"
     overflow="visible"
     id="use903-3"
     x="0"
     y="0"
     width="100%"
     height="100%" /></clipPath><clipPath
   id="clipPath909-4"><use
     xlink:href="#SVGID_1_-2"
     overflow="visible"
     id="use907-8"
     x="0"
     y="0"
     width="100%"
     height="100%" /></clipPath><clipPath
   id="clipPath913-9"><use
     xlink:href="#SVGID_1_-2"
     overflow="visible"
     id="use911-5"
     x="0"
     y="0"
     width="100%"
     height="100%" /></clipPath><clipPath
   id="clipPath917-6"><use
     xlink:href="#SVGID_1_-2"
     overflow="visible"
     id="use915-6"
     x="0"
     y="0"
     width="100%"
     height="100%" /></clipPath><clipPath
   id="clipPath921-3"><use
     xlink:href="#SVGID_1_-2"
     overflow="visible"
     id="use919-4"
     x="0"
     y="0"
     width="100%"
     height="100%" /></clipPath><clipPath
   id="clipPath925-8"><use
     xlink:href="#SVGID_1_-2"
     overflow="visible"
     id="use923-7"
     x="0"
     y="0"
     width="100%"
     height="100%" /></clipPath><clipPath
   id="clipPath929-0"><use
     xlink:href="#SVGID_1_-2"
     overflow="visible"
     id="use927-8"
     x="0"
     y="0"
     width="100%"
     height="100%" /></clipPath><rect
   id="SVGID_1_-2"
   width="413.979"
   height="105.953"
   x="0"
   y="0" /><clipPath
   id="SVGID_2_-69-6"><use
     xlink:href="#SVGID_1_-2"
     overflow="visible"
     id="use7-6-6"
     x="0"
     y="0"
     width="100%"
     height="100%" /></clipPath><clipPath
   id="clipPath914"><use
     xlink:href="#SVGID_1_-2"
     overflow="visible"
     id="use912"
     x="0"
     y="0"
     width="100%"
     height="100%" /></clipPath><clipPath
   id="clipPath918"><use
     xlink:href="#SVGID_1_-2"
     overflow="visible"
     id="use916"
     x="0"
     y="0"
     width="100%"
     height="100%" /></clipPath><clipPath
   id="clipPath922"><use
     xlink:href="#SVGID_1_-2"
     overflow="visible"
     id="use920"
     x="0"
     y="0"
     width="100%"
     height="100%" /></clipPath><clipPath
   id="clipPath926"><use
     xlink:href="#SVGID_1_-2"
     overflow="visible"
     id="use924"
     x="0"
     y="0"
     width="100%"
     height="100%" /></clipPath><clipPath
   id="clipPath930"><use
     xlink:href="#SVGID_1_-2"
     overflow="visible"
     id="use928"
     x="0"
     y="0"
     width="100%"
     height="100%" /></clipPath><clipPath
   id="clipPath934"><use
     xlink:href="#SVGID_1_-2"
     overflow="visible"
     id="use932"
     x="0"
     y="0"
     width="100%"
     height="100%" /></clipPath><clipPath
   id="clipPath938"><use
     xlink:href="#SVGID_1_-2"
     overflow="visible"
     id="use936"
     x="0"
     y="0"
     width="100%"
     height="100%" /></clipPath><clipPath
   id="clipPath942"><use
     xlink:href="#SVGID_1_-2"
     overflow="visible"
     id="use940"
     x="0"
     y="0"
     width="100%"
     height="100%" /></clipPath><clipPath
   id="clipPath946"><use
     xlink:href="#SVGID_1_-2"
     overflow="visible"
     id="use944"
     x="0"
     y="0"
     width="100%"
     height="100%" /></clipPath><clipPath
   id="clipPath950"><use
     xlink:href="#SVGID_1_-2"
     overflow="visible"
     id="use948"
     x="0"
     y="0"
     width="100%"
     height="100%" /></clipPath><clipPath
   id="clipPath954"><use
     xlink:href="#SVGID_1_-2"
     overflow="visible"
     id="use952"
     x="0"
     y="0"
     width="100%"
     height="100%" /></clipPath><rect
   id="rect947-4"
   width="413.979"
   height="105.953"
   x="0"
   y="0" /></defs>
<g
   sodipodi:insensitive="true"
   style="display:inline"
   inkscape:label="Marker Base"
   id="layer1"
   inkscape:groupmode="layer"><path
     sodipodi:nodetypes="ssccss"
     inkscape:transform-center-y="1.23735"
     inkscape:transform-center-x="-2.1147764"
     d="M 92.282017,8.8280694 C 41.538287,8.9051762 3.4718279,48.695194 20.574419,100.35954 29.75129,128.08148 78.529497,158.99228 92.712877,171.32131 107.30688,159.39687 156.85903,122.61119 162.44329,105.78665 186.4574,55.719807 147.49721,10.615476 101.39026,9.3566629 98.559643,9.2793809 101.06611,8.8147216 92.282017,8.8280694 Z"
     fill="#e74c3c"
     id="path2"
     style="display:inline;fill:#c4a12e;fill-opacity:1;fill-rule:evenodd;stroke:#ffffff;stroke-width:0.78227;stroke-miterlimit:4;stroke-dasharray:none;stroke-opacity:1" /><path
     style="fill:#ffffff;fill-rule:evenodd;stroke:none;stroke-width:2.66667"
     id="path884"
     sodipodi:type="arc"
     sodipodi:cx="365.61887"
     sodipodi:cy="-21.112473"
     sodipodi:rx="47.352169"
     sodipodi:ry="70.097176"
     sodipodi:start="3.0170983"
     sodipodi:end="6.268926"
     sodipodi:arc-type="arc"
     d="m 318.63318,-12.408295 a 47.352169,70.097176 0 0 1 19.80687,-66.105001 47.352169,70.097176 0 0 1 48.73342,-5.013022 47.352169,70.097176 0 0 1 25.79275,61.414342"
     sodipodi:open="true" /></g><g
   sodipodi:insensitive="true"
   style="display:inline"
   inkscape:label="Inner Circle"
   id="layer2"
   inkscape:groupmode="layer"><ellipse
     cx="91.785088"
     cy="76.836288"
     rx="66.054016"
     ry="59.627941"
     id="path882"
     style="display:inline;fill:#ffffff;fill-rule:evenodd;stroke:none;stroke-width:0;stroke-miterlimit:4.33333;stroke-dasharray:none" /></g><g
   inkscape:label="Logo"
   id="layer3"
   inkscape:groupmode="layer"><g
     id="g122-2-8"
     transform="matrix(0.98328721,0,0,0.97678198,43.387106,22.522399)"
     style="display:inline"><defs
       id="defs5-7-7"><rect
         id="rect972"
         width="413.979"
         height="105.953"
         x="0"
         y="0" /></defs><clipPath
       id="clipPath935-2"><use
         xlink:href="#SVGID_1_-2"
         overflow="visible"
         id="use933-8"
         x="0"
         y="0"
         width="100%"
         height="100%" /></clipPath><path
       clip-path="url(#SVGID_2_-69-6)"
       fill="#52648f"
       d="M 83.872,83.152 H 15.84 c 0.002,0.867 0.004,1.735 0.006,2.603 H 83.878 C 83.876,84.888 83.874,84.02 83.872,83.152"
       id="path20-3-3" /><path
       clip-path="url(#SVGID_2_-69-6)"
       fill="#52648f"
       d="m 83.878,28.733 c -0.001,-0.214 -0.002,-0.427 -0.003,-0.64 -0.001,-0.434 -0.002,-0.868 -0.003,-1.301 H 15.84 c 10e-4,0.22 10e-4,0.44 0.002,0.66 H 15.84 c 10e-4,0.214 0.002,0.427 0.003,0.641 10e-4,0.433 0.002,0.867 0.003,1.301 h 68.032 c -0.001,-0.221 -0.001,-0.441 -0.002,-0.661 z"
       id="path22-1-5" /><rect
       x="15.84"
       y="88.537003"
       clip-path="url(#SVGID_2_-69-6)"
       fill="#52648f"
       width="67.813004"
       height="6.651"
       id="rect24-3-0" /><polygon
       clip-path="url(#SVGID_2_-69-6)"
       fill="#52648f"
       points="15.84,24.009 83.878,24.009 83.878,19.41 49.859,7.2 15.84,19.41 "
       id="polygon26-4-1" /><path
       clip-path="url(#SVGID_2_-69-6)"
       fill="#c4a12e"
       d="m 18.604,35.841 c 0,-1.649 1.337,-2.985 2.985,-2.985 h 2.734 c 1.648,0 2.985,1.336 2.985,2.985 V 80.51 h 1.351 V 35.767 c 0,-2.404 -1.949,-4.352 -4.352,-4.352 h -2.702 c -2.403,0 -4.352,1.948 -4.352,4.352 V 80.56 h 1.351 z"
       id="path28-6-9" /><path
       clip-path="url(#SVGID_2_-69-6)"
       fill="#c4a12e"
       d="m 25.477,36.184 c 0,-0.914 -0.624,-1.657 -1.391,-1.657 h -2.259 c -0.767,0 -1.391,0.743 -1.391,1.657 v 43.593 c 1.379,-0.555 3.695,-0.604 5.041,-0.05 z"
       id="path30-2-9" /><path
       clip-path="url(#SVGID_2_-69-6)"
       fill="#c4a12e"
       d="m 79.283,36.184 c 0,-0.914 -0.624,-1.657 -1.391,-1.657 h -2.259 c -0.767,0 -1.391,0.743 -1.391,1.657 v 43.598 c 1.373,-0.537 3.668,-0.537 5.041,0 z"
       id="path32-6-2" /><path
       clip-path="url(#SVGID_2_-69-6)"
       fill="#c4a12e"
       d="M 78.112,31.415 H 75.41 c -2.403,0 -4.352,1.948 -4.352,4.352 V 80.56 h 1.351 V 35.841 c 0,-1.649 1.337,-2.985 2.985,-2.985 h 2.734 c 1.648,0 2.985,1.336 2.985,2.985 V 80.56 h 1.351 V 35.767 c 0,-2.404 -1.949,-4.352 -4.352,-4.352"
       id="path34-6-4" /><path
       clip-path="url(#SVGID_2_-69-6)"
       fill="#c4a12e"
       d="m 43.413,36.184 c 0,-0.914 -0.624,-1.657 -1.391,-1.657 h -2.259 c -0.767,0 -1.391,0.743 -1.391,1.657 v 43.598 c 1.373,-0.537 3.668,-0.537 5.041,0 z"
       id="path36-9-0" /><path
       clip-path="url(#SVGID_2_-69-6)"
       fill="#c4a12e"
       d="M 42.242,31.415 H 39.54 c -2.403,0 -4.352,1.948 -4.352,4.352 V 80.56 h 1.351 V 35.841 c 0,-1.649 1.337,-2.985 2.985,-2.985 h 2.734 c 1.648,0 2.985,1.336 2.985,2.985 V 80.51 h 1.187 v 0.05 h 0.164 V 35.767 c 0,-2.404 -1.949,-4.352 -4.352,-4.352"
       id="path38-1-7" /><path
       clip-path="url(#SVGID_2_-69-6)"
       fill="#52648f"
       d="m 51.598,36.831 c -0.221,-1.634 0.925,-3.137 2.559,-3.358 l 2.709,-0.366 c 1.633,-0.22 3.137,0.925 3.358,2.559 l 5.969,44.205 1.339,-0.18 -5.98,-44.279 C 61.231,33.03 59.039,31.36 56.657,31.681 l -2.677,0.362 c -2.382,0.322 -4.052,2.513 -3.731,4.895 l 5.98,44.279 1.339,-0.182 z"
       id="path40-1-2" /><path
       clip-path="url(#SVGID_2_-69-6)"
       fill="#52648f"
       d="m 58.456,36.25 c -0.122,-0.906 -0.84,-1.559 -1.601,-1.456 l -2.238,0.302 c -0.76,0.103 -1.279,0.923 -1.157,1.829 l 5.835,43.205 c 1.289,-0.715 3.563,-1.022 4.996,-0.674 z"
       id="path42-2-9" /></g></g>
</svg>
